<?xml version="1.0" encoding="UTF-8"?>
<svg id="Layer_1" xmlns="http://www.w3.org/2000/svg" version="1.1" viewBox="0 0 32 32">
  <!-- Generator: Adobe Illustrator 29.8.3, SVG Export Plug-In . SVG Version: 2.1.1 Build 3)  -->
  <defs>
    <style>
      .st0 {
        fill: #e8ad05;
      }

      .st1 {
        fill: #eae6d4;
      }

      .st2 {
        fill: #1569cd;
      }

      .st3 {
        fill: #db212f;
      }

      .st4 {
        fill: #e667b9;
      }

      .st5 {
        fill: #2e9c53;
      }
    </style>
  </defs>
  <rect class="st5" x="32.2" y="285.4" width="35.2" height="247.7"/>
  <rect class="st5" x="49.8" y="501.3" width="115.3" height="31.8"/>
  <path class="st0" d="M84.5,285.4v195.5h80.7v-170.1c0-14-11.3-25.3-25.3-25.3h-55.3ZM139.7,454.2h-29.7v-142.3h29.7v142.3Z"/>
  <path class="st2" d="M654.7,285.4v195.5h53.1c15.2,0,27.6-12.3,27.6-27.6v-167.9h-80.7ZM709.9,454.2h-29.7v-142.3h29.7v142.3Z"/>
  <rect class="st3" x="184.1" y="285.4" width="26.8" height="247.7"/>
  <rect class="st3" x="237.9" y="285.4" width="26.8" height="247.7"/>
  <rect class="st4" x="427.3" y="326.6" width="26.8" height="206.5"/>
  <rect class="st4" x="481" y="285.4" width="26.8" height="247.7"/>
  <rect class="st3" x="211" y="285.4" width="26.8" height="247.7" transform="translate(-84.4 59.2) rotate(-12.7)"/>
  <rect class="st2" x="276.8" y="285.4" width="25.3" height="209.9"/>
  <rect class="st2" x="276.8" y="285.4" width="74.3" height="26.5"/>
  <rect class="st2" x="317.8" y="331.7" width="43.9" height="22"/>
  <rect class="st2" x="269.3" y="402.6" width="155.7" height="29.2" transform="translate(764.3 70) rotate(90)"/>
  <rect class="st2" x="279.9" y="464.8" width="81.8" height="30.6"/>
  <path class="st3" d="M276.8,509.4h131.7c0,13.1-10.6,23.7-23.7,23.7h-108v-23.7h0Z"/>
  <rect class="st4" x="435" y="509.4" width="65.9" height="23.7"/>
  <rect class="st5" x="569.5" y="285.4" width="26.8" height="247.7" transform="translate(1165.7 818.5) rotate(180)"/>
  <rect class="st5" x="525.7" y="285.4" width="26.8" height="247.7" transform="translate(1078.3 818.5) rotate(180)"/>
  <rect class="st5" x="532.7" y="285.4" width="55.9" height="23.7" transform="translate(1121.2 594.4) rotate(180)"/>
  <rect class="st5" x="611.6" y="285.4" width="26.8" height="247.7" transform="translate(1250 818.5) rotate(180)"/>
  <rect class="st5" x="574.8" y="285.4" width="55.9" height="23.7" transform="translate(1205.5 594.4) rotate(180)"/>
  <rect class="st3" x="360.3" y="285.4" width="106.9" height="26.5"/>
  <path class="st3" d="M380.9,298.7h27.6v210.7c0,13.1-10.6,23.7-23.7,23.7h-3.9v-234.4h0Z"/>
  <rect class="st2" x="654.7" y="468.8" width="25.5" height="64.2"/>
  <g>
    <rect class="st0" x="32.2" y="221.4" width="56.4" height="56.4" rx="8.7" ry="8.7"/>
    <rect class="st1" x="32.2" y="214.3" width="56.4" height="56.4" rx="8.7" ry="8.7"/>
    <path d="M64.3,249.7h-8.6l-2.1,5.1h-5l11.7-27h.3l11.7,27h-5.9l-2-5.1ZM62.6,245.4l-2.5-6.3-2.6,6.3h5.1Z"/>
  </g>
  <g>
    <rect class="st0" x="161.6" y="221.4" width="56.4" height="56.4" rx="8.7" ry="8.7"/>
    <rect class="st1" x="161.6" y="214.3" width="56.4" height="56.4" rx="8.7" ry="8.7"/>
    <path d="M196.7,255.9l-6.2-15.4-7.2,15.5-10.4-27h6l5.1,15,4-9.9-2-5.1h5.1l5.8,14.4,4.4-14.4h5.5l-10,26.9Z"/>
  </g>
  <g>
    <rect class="st0" x="226.3" y="221.4" width="56.4" height="56.4" rx="8.7" ry="8.7"/>
    <rect class="st1" x="226.3" y="214.3" width="56.4" height="56.4" rx="8.7" ry="8.7"/>
    <path d="M243,235.2c1.2-2,2.8-3.7,4.8-4.9s4.2-1.8,6.6-1.8,4.6.6,6.6,1.8,3.7,2.8,4.9,4.9c1.2,2,1.8,4.2,1.8,6.6s-.6,4.6-1.8,6.6-2.8,3.6-4.9,4.8c-2,1.2-4.2,1.8-6.6,1.8s-4.6-.6-6.6-1.8c-2-1.2-3.6-2.8-4.8-4.8-1.2-2-1.8-4.2-1.8-6.6s.6-4.6,1.8-6.6ZM247.5,246c.7,1.3,1.7,2.3,2.9,3s2.6,1.1,4.1,1.1,2.8-.4,4-1.1,2.1-1.7,2.8-3c.7-1.3,1-2.7,1-4.2s-.4-3-1.1-4.2-1.7-2.3-2.9-3-2.6-1.1-4-1.1-2.8.4-4,1.1-2.2,1.7-2.9,3c-.7,1.3-1.1,2.7-1.1,4.2s.4,2.9,1.1,4.2Z"/>
  </g>
  <g>
    <rect class="st0" x="290.9" y="221.4" width="56.4" height="56.4" rx="8.7" ry="8.7"/>
    <rect class="st1" x="290.9" y="214.3" width="56.4" height="56.4" rx="8.7" ry="8.7"/>
    <path d="M324.4,254.8l-5.5-8.3h-3.4v8.3h-5.1v-26h7.9c3.2,0,5.7.8,7.5,2.3,1.8,1.6,2.7,3.7,2.7,6.4s-.3,3.1-1,4.5c-.7,1.4-1.7,2.5-3.1,3.3l6,9.4h-6ZM315.5,241.6h3.6c1.4,0,2.4-.4,3-1.2.6-.8,1-1.7,1-2.6s-.3-1.8-.8-2.7c-.5-.9-1.6-1.3-3.1-1.3h-3.7v7.8Z"/>
  </g>
  <g>
    <rect class="st0" x="355.6" y="221.4" width="56.4" height="56.4" rx="8.7" ry="8.7"/>
    <rect class="st1" x="355.6" y="214.3" width="56.4" height="56.4" rx="8.7" ry="8.7"/>
    <path d="M373.5,228.8h7.8c3.3,0,6,.6,8.2,1.9,2.1,1.3,3.7,2.9,4.7,5,1,2,1.5,4.2,1.5,6.5s-.6,4.7-1.8,6.6c-1.2,1.9-2.8,3.4-4.7,4.4-2,1-4.2,1.5-6.5,1.5h-9v-26ZM381.7,249.8c2.7,0,4.8-.7,6.3-2,1.6-1.4,2.3-3.3,2.3-5.9s-.4-3.7-1.3-4.9c-.9-1.2-1.9-2.1-3-2.5-1.1-.5-2.2-.7-3.2-.7h-4.2v16.1h3Z"/>
  </g>
  <g>
    <rect class="st0" x="485" y="221.4" width="56.4" height="56.4" rx="8.7" ry="8.7"/>
    <rect class="st1" x="485" y="214.3" width="56.4" height="56.4" rx="8.7" ry="8.7"/>
    <path d="M522,253.5c-1,.5-2.2.8-3.4,1.1s-2.4.4-3.4.4c-2.8,0-5.2-.5-7.3-1.6-2.1-1.1-3.7-2.6-4.8-4.4-1.1-1.9-1.7-4.1-1.7-6.5s.6-5.6,1.8-7.7c1.2-2.1,2.8-3.7,4.8-4.7,2-1,4.3-1.6,6.7-1.6s3.1.2,4.4.5,2.6.8,3.7,1.4l-1.7,4.8c-.7-.4-1.6-.7-2.8-1-1.2-.3-2.2-.5-3-.5-2.8,0-5,.7-6.5,2.1-1.5,1.4-2.2,3.5-2.2,6.3s.4,3,1.1,4.2c.7,1.2,1.7,2.1,3.1,2.7,1.3.6,2.8,1,4.5,1s2.8-.2,3.6-.7v-3.1h-4.5v-4.9h9.7v11c-.4.4-1.1.9-2.1,1.3Z"/>
  </g>
  <g>
    <rect class="st0" x="549.6" y="221.4" width="56.4" height="56.4" rx="8.7" ry="8.7"/>
    <rect class="st1" x="549.6" y="214.3" width="56.4" height="56.4" rx="8.7" ry="8.7"/>
    <path d="M581.7,249.7h-8.6l-2.1,5.1h-5l11.7-27h.3l11.7,27h-5.9l-2-5.1ZM580.1,245.4l-2.5-6.3-2.6,6.3h5.1Z"/>
  </g>
  <g>
    <rect class="st0" x="614.3" y="221.4" width="56.4" height="56.4" rx="8.7" ry="8.7"/>
    <rect class="st1" x="614.3" y="214.3" width="56.4" height="56.4" rx="8.7" ry="8.7"/>
    <path d="M655.9,227.7v27h-5.1v-12.4l-8.5,12h0l-8.2-11.3v11.6h-4.9v-27h0l13.2,18.7,13.5-18.7h0Z"/>
  </g>
  <g>
    <rect class="st0" x="679" y="221.4" width="56.4" height="56.4" rx="8.7" ry="8.7"/>
    <rect class="st1" x="679" y="214.3" width="56.4" height="56.4" rx="8.7" ry="8.7"/>
    <path d="M716.5,228.8v4.9h-12.6v5.5h11.2v4.9h-11.2v5.6h13.1v4.9h-18.2v-26h17.7Z"/>
  </g>
  <g>
    <rect class="st0" x="4" y="5.5" width="24" height="24" rx="3.7" ry="3.7"/>
    <rect class="st1" x="4" y="2.5" width="24" height="24" rx="3.7" ry="3.7"/>
  </g>
  <g>
    <path class="st5" d="M11.8,7.7v9.5h5.5v2.2h-7.8V7.7h2.3Z"/>
    <path class="st3" d="M22.5,19.5c-.4.7-1,1.3-1.7,1.7s-1.6.6-2.5.6v-2.2c1.6,0,2.5-1,2.5-2.7V7.7h2.3v9.3c0,1-.2,1.9-.6,2.6Z"/>
  </g>
</svg>